<svg width="832" height="797" viewBox="0 0 832 797" fill="none" xmlns="http://www.w3.org/2000/svg">
<g clip-path="url(#clip0_18_5)">
<rect width="832" height="797" fill="white"/>
<path d="M201.5 669.353C206.3 660.953 264.167 630.186 292.5 615.853L311 623.853C281.5 641.02 220.3 676.653 207.5 683.853C207 685.353 214.5 710.853 215.5 716.853C216.3 721.653 218.167 764.186 219 784.853C225 785.02 238.9 785.953 246.5 788.353C256 791.353 289 787.353 288.5 791.853C275 802.853 225 794.353 212 791.853C204.5 786.353 204 740.853 204 725.853C194.5 716.853 195 684.353 201.5 675.353C201.667 673.686 201.9 670.153 201.5 669.353Z" fill="#C45526"/>
<path d="M618.5 652.353C613.7 643.953 555.833 613.186 527.5 598.853L509 606.853C538.5 624.02 599.7 659.653 612.5 666.853C613 668.353 605.5 693.853 604.5 699.853C603.7 704.653 601.833 747.186 601 767.853C595 768.02 581.1 768.953 573.5 771.353C564 774.353 531 770.353 531.5 774.853C545 785.853 595 777.353 608 774.853C615.5 769.353 616 723.853 616 708.853C625.5 699.853 625 667.353 618.5 658.353C618.333 656.686 618.1 653.153 618.5 652.353Z" fill="#C45526"/>
<path d="M200 573.353C217.6 569.353 254 564.353 270 562.353L276 577.853C261 580.186 229.1 585.053 221.5 585.853C212 586.853 172 597.353 164.5 601.353C157 605.353 154.5 604.353 149 604.353C148 607.853 115 631.353 111 632.353C105.8 634.353 77.1666 665.853 63.5 681.353C63.3333 687.52 63.1 699.453 63.5 701.853C64 704.853 85 725.05 85 726.853C85 727.853 84.5 728.853 83 728.853C74.5 727.853 61.5 713.353 57 703.853C53.4 695.453 55.4999 679.02 56.9999 672.353C67.6666 660.853 91.2999 635.553 100.5 626.353C104.5 616.353 133.167 600.853 147 594.353L151 589.853C160 586.02 182.4 577.353 200 573.353Z" fill="#C45526"/>
<path d="M639 572.853C621.4 568.853 585 563.853 569 561.853L563 577.353C578 579.686 609.9 584.553 617.5 585.353C627 586.353 667 596.853 674.5 600.853C682 604.853 684.5 603.853 690 603.853C691 607.353 724 630.853 728 631.853C733.2 633.853 761.833 665.353 775.5 680.853C775.667 687.02 775.9 698.953 775.5 701.353C775 704.353 754 724.55 754 726.353C754 727.353 754.5 728.353 756 728.353C764.5 727.353 777.5 712.853 782 703.353C785.6 694.953 783.5 678.52 782 671.853C771.333 660.353 747.7 635.053 738.5 625.853C734.5 615.853 705.833 600.353 692 593.853L688 589.353C679 585.52 656.6 576.853 639 572.853Z" fill="#C45526"/>
<path d="M595.5 559.853L566 551.853L595.5 545.853C619.833 547.686 669.4 551.453 673 551.853C677.5 552.353 677 553.353 679.5 554.853C685.1 552.453 709.5 543.853 721 539.853C726.667 535.52 740.1 525.153 748.5 518.353C756.9 511.553 775.333 494.186 783.5 486.353H786L795 433.853C802.2 442.653 796 475.186 792 490.353C792.5 490.686 793.5 491.553 793.5 492.353C793.5 493.353 784.5 503.353 776.5 510.353C770.1 515.953 744.833 537.353 733 547.353C731.167 549.353 725.6 554.053 718 556.853C708.5 560.353 682 566.853 676 565.353C676 566.52 674.9 568.753 670.5 568.353C666.5 565.953 618.833 561.686 595.5 559.853Z" fill="#C45526"/>
<path d="M252.811 552.853L282.311 544.853L252.811 538.853C228.478 540.686 178.911 544.453 175.311 544.853C170.811 545.353 171.311 546.353 168.811 547.853C163.211 545.453 138.811 536.853 127.311 532.853C121.644 528.52 108.211 518.153 99.811 511.353C91.411 504.553 72.9777 487.186 64.811 479.353H62.311L53.311 426.853C46.111 435.653 52.311 468.186 56.311 483.353C55.811 483.686 54.811 484.553 54.811 485.353C54.811 486.353 63.811 496.353 71.811 503.353C78.211 508.953 103.478 530.353 115.311 540.353C117.144 542.353 122.711 547.053 130.311 549.853C139.811 553.353 166.311 559.853 172.311 558.353C172.311 559.52 173.411 561.753 177.811 561.353C181.811 558.953 229.478 554.686 252.811 552.853Z" fill="#C45526"/>
<path d="M692.5 424.853C673.3 428.053 619.167 435.52 594.5 438.853L598 459.853C622.833 456.02 676.5 447.453 692.5 443.853C712.5 439.353 750 428.353 754 424.853C756 419.853 751.5 416.853 750 416.353C750 414.353 748 409.853 745.5 409.353C743 408.853 716.5 420.853 692.5 424.853Z" fill="#C45526"/>
<path d="M139.159 424.2C158.359 427.4 212.492 434.867 237.159 438.2L233.659 459.2C208.826 455.367 155.159 446.8 139.159 443.2C119.159 438.7 81.6589 427.7 77.6589 424.2C75.6589 419.2 80.1589 416.2 81.6589 415.7C81.6589 413.7 83.6589 409.2 86.1589 408.7C88.6589 408.2 115.159 420.2 139.159 424.2Z" fill="#C45526"/>
<path d="M755.5 405.853C754.3 408.253 748.333 410.52 745.5 411.353C746 415.02 748.1 422.253 752.5 421.853C758 421.353 768.5 408.853 772 403.353C775.5 397.853 781.5 384.353 787.5 361.853C791 358.853 829.5 288.353 831.5 281.353C833.5 274.353 816 233.853 813.5 224.353C811 214.853 798.5 203.353 796.5 205.853C794.5 208.353 817.5 266.853 818 272.353C818.5 277.853 818 277.353 816 281.353C814 285.353 779.5 342.853 772 357.853C764.5 372.853 757 402.853 755.5 405.853Z" fill="#C45526"/>
<path d="M76.1589 405.2C77.3589 407.6 83.3256 409.867 86.1589 410.7C85.6589 414.367 83.5589 421.6 79.1589 421.2C73.6589 420.7 63.1589 408.2 59.6589 402.7C56.1589 397.2 50.1589 383.7 44.1589 361.2C40.6589 358.2 2.15894 287.7 0.158936 280.7C-1.84106 273.7 15.6589 233.2 18.1589 223.7C20.6589 214.2 33.1589 202.7 35.1589 205.2C37.1589 207.7 14.1589 266.2 13.6589 271.7C13.1589 277.2 13.6589 276.7 15.6589 280.7C17.6589 284.7 52.1589 342.2 59.6589 357.2C67.1589 372.2 74.6589 402.2 76.1589 405.2Z" fill="#C45526"/>
<path d="M571.516 401.12C570.316 405.52 565.016 405.953 562.516 405.62L541.517 376.12C542.183 375.786 543.617 374.62 544.017 372.62C544.517 370.12 549.017 370.12 553.017 371.12C553.017 368.12 555.017 364.62 557.017 364.12C558.617 363.72 561.017 364.953 562.017 365.62C562.35 364.786 563.117 362.92 563.517 362.12C563.917 361.32 569.017 361.12 571.517 361.12C572.35 359.12 574.517 355.02 576.517 354.62C578.517 354.22 581.017 355.12 582.017 355.62C582.183 354.453 583.017 351.92 585.017 351.12C587.017 350.32 590.517 350.453 592.017 350.62C592.017 349.12 592.517 345.82 594.517 344.62C597.017 343.12 600.517 343.12 605.017 342.62C605.183 341.453 605.917 338.92 607.517 338.12C609.117 337.32 612.183 338.12 613.517 338.62C613.517 337.453 613.917 334.92 615.517 334.12C617.117 333.32 619.85 334.453 621.017 335.12C620.85 333.786 620.917 330.82 622.517 329.62C624.117 328.42 627.517 329.12 629.017 329.62C628.683 328.786 628.417 326.82 630.017 325.62C631.617 324.42 634.35 325.453 635.517 326.12C635.683 324.62 636.517 321.32 638.517 320.12C640.517 318.92 643.017 319.953 644.017 320.62C644.517 320.62 645.817 320.32 647.017 319.12C646.017 316.12 649.517 312.62 654.517 313.62C654.017 312.12 655.516 308.62 660.016 309.12C660.516 305.62 666.016 302.12 670.516 302.62C670.016 299.62 672.016 296.12 678.016 295.62C678.016 294.62 679.016 291.62 683.516 291.62C683.016 288.62 687.516 286.62 691.016 285.62C690.016 281.12 694.016 280.62 697.016 280.62C696.516 280.12 699.016 276.12 701.516 276.62C702.183 274.786 704.416 271.02 708.016 270.62C706.516 268.12 711.516 264.62 714.016 265.12C714.016 261.62 716.516 260.62 719.016 260.62C719.016 257.62 721.016 255.12 723.516 255.62C723.516 254.286 724.417 251.42 728.016 250.62C728.417 248.22 731.183 246.286 732.516 245.62C739.683 236.12 754.317 216.32 755.516 213.12C757.016 209.12 755.517 203.853 742.517 201.353C729.517 198.853 717.516 188.353 714.016 187.853C710.516 187.353 709.598 185.353 708.016 185.353C703 185.353 700.5 179.853 695.5 180.353C686.5 178.353 662 138.853 637 121.353C612 103.853 572 59.853 558.5 56.353C545 52.853 512.025 33.2354 492 24.853C470.5 15.853 428 8.35295 425.5 8.85295C423 9.35295 422.5 8.35295 424 4.85295C430 -6.64705 480.409 5.45529 494 8.85295C508 12.353 568 37.853 572.5 38.353C577 38.853 626.5 81.8529 637 87.3529C647.5 92.8529 709.5 139.853 728.5 151.853C730.1 154.653 733 151.853 733 156.853L742.517 160.853C755.683 168.52 766.117 181.753 770.517 185.353C776.017 189.853 782.517 202.12 784.017 204.62C785.217 206.62 780.516 210.62 780.016 213.12C780.85 213.953 782.516 216.52 782.516 220.12C782.516 224.62 780.516 224.62 780.016 225.62C779.516 226.62 782.016 227.62 784.016 232.12C783.516 239.12 778.517 243.62 770.517 249.12C772.017 252.12 771.017 254.62 764.517 254.62C765.517 257.12 765.517 260.12 758.517 262.12C760.017 263.62 759.017 268.62 754.017 268.62C755.017 270.62 754.017 274.12 749.017 274.12C750.517 276.12 748.017 279.62 742.517 280.62C743.517 283.12 741.516 286.62 735.516 286.12C736.016 289.62 735.517 293.12 730.017 292.62C731.017 295.62 729.016 298.12 723.016 298.62C723.516 300.62 721.516 305.12 716.016 304.62C717.016 307.12 713.516 311.62 709.516 311.12C709.516 314.62 708.016 316.62 703.516 316.12C704.516 317.62 703.516 320.12 699.516 320.62C700.016 321.62 698.516 326.12 693.516 326.12C692.516 330.62 688.516 334.62 682.516 333.62C684.016 336.12 681.516 340.12 673.516 341.62C673.516 343.62 673.516 347.12 665.516 346.62C665.516 352.12 663.516 354.62 655.016 354.62C655.016 358.12 653.516 361.62 645.016 361.12C645.516 363.62 645.516 368.62 634.516 368.62C634.516 372.62 631.516 374.62 625.016 374.62C622.516 379.62 618.016 383.12 612.016 382.12C612.016 385.62 604.516 391.62 601.516 388.62C600.516 391.62 594.016 394.62 589.516 392.62C590.516 395.12 584.016 399.62 579.016 398.12C577.516 401.12 575.516 401.62 571.516 401.12Z" fill="#C45526"/>
<path d="M683.462 325.853C635.039 365.853 578.482 392.52 556.256 400.853L552 377.353C576.275 363.686 632.863 331.253 665.02 310.853C697.176 290.453 736.11 242.353 751.557 220.853L770 229.853C766.217 243.353 743.991 275.853 683.462 325.853Z" fill="url(#paint0_linear_18_5)"/>
<path d="M268.5 389.353C269.7 393.753 275 394.186 277.5 393.853L298.5 364.353C297.833 364.02 296.4 362.853 296 360.853C295.5 358.353 291 358.353 287 359.353C287 356.353 285 352.853 283 352.353C281.4 351.953 279 353.186 278 353.853C277.667 353.02 276.9 351.153 276.5 350.353C276.1 349.553 271 349.353 268.5 349.353C267.667 347.353 265.5 343.253 263.5 342.853C261.5 342.453 259 343.353 258 343.853C257.833 342.686 257 340.153 255 339.353C253 338.553 249.5 338.686 248 338.853C248 337.353 247.5 334.053 245.5 332.853C243 331.353 239.5 331.353 235 330.853C234.833 329.686 234.1 327.153 232.5 326.353C230.9 325.553 227.833 326.353 226.5 326.853C226.5 325.686 226.1 323.153 224.5 322.353C222.9 321.553 220.167 322.686 219 323.353C219.167 322.02 219.1 319.053 217.5 317.853C215.9 316.653 212.5 317.353 211 317.853C211.333 317.02 211.6 315.053 210 313.853C208.4 312.653 205.667 313.686 204.5 314.353C204.333 312.853 203.5 309.553 201.5 308.353C199.5 307.153 197 308.186 196 308.853C195.5 308.853 194.2 308.553 193 307.353C194 304.353 190.5 300.853 185.5 301.853C186 300.353 184.5 296.853 180 297.353C179.5 293.853 174 290.353 169.5 290.853C170 287.853 168 284.353 162 283.853C162 282.853 161 279.853 156.5 279.853C157 276.853 152.5 274.853 149 273.853C150 269.353 146 268.853 143 268.853C143.5 268.353 141 264.353 138.5 264.853C137.833 263.02 135.6 259.253 132 258.853C133.5 256.353 128.5 252.853 126 253.353C126 249.853 123.5 248.853 121 248.853C121 245.853 119 243.353 116.5 243.853C116.5 242.52 115.6 239.653 112 238.853C111.6 236.453 108.833 234.52 107.5 233.853C100.333 224.353 85.7 204.553 84.5 201.353C83.0001 197.353 85.9999 195.353 99 192.853C112 190.353 126.5 184.853 130 184.353C133.5 183.853 131.5 181.853 133 181.353C134.5 180.853 136 181.353 141 181.853C150 179.853 198.5 143.353 223.5 125.853C248.5 108.353 292.5 80.853 306 77.353C319.5 73.853 361.5 61.853 383 58.853C404.5 55.853 436 61.353 438.5 61.853C441 62.353 443 60.853 441.5 57.353C435.5 45.853 386.5 46.853 372.5 47.353C358.5 47.853 299.5 58.353 295 58.853C290.5 59.353 260 79.853 249.5 85.353C239 90.853 141 132.853 122 144.853C120.4 147.653 120.333 149.686 120.5 150.353H117C103.833 158.02 76.4 174.253 72 177.853C66.5 182.353 61.5 188.853 60 191.353C58.8 193.353 59.5 198.853 60 201.353C59.1667 202.186 57.5 204.753 57.5 208.353C57.5 212.853 59.5 212.853 60 213.853C60.5 214.853 58 215.853 56 220.353C56.5 227.353 61.4999 231.853 69.4999 237.353C67.9999 240.353 68.9999 242.853 75.4999 242.853C74.4999 245.353 74.4999 248.353 81.4999 250.353C79.9999 251.853 80.9999 256.853 85.9999 256.853C84.9999 258.853 86 262.353 91 262.353C89.5 264.353 91.9999 267.853 97.4999 268.853C96.4999 271.353 98.5 274.853 104.5 274.353C104 277.853 104.5 281.353 110 280.853C109 283.853 111 286.353 117 286.853C116.5 288.853 118.5 293.353 124 292.853C123 295.353 126.5 299.853 130.5 299.353C130.5 302.853 132 304.853 136.5 304.353C135.5 305.853 136.5 308.353 140.5 308.853C140 309.853 141.5 314.353 146.5 314.353C147.5 318.853 151.5 322.853 157.5 321.853C156 324.353 158.5 328.353 166.5 329.853C166.5 331.853 166.5 335.353 174.5 334.853C174.5 340.353 176.5 342.853 185 342.853C185 346.353 186.5 349.853 195 349.353C194.5 351.853 194.5 356.853 205.5 356.853C205.5 360.853 208.5 362.853 215 362.853C217.5 367.853 222 371.353 228 370.353C228 373.853 235.5 379.853 238.5 376.853C239.5 379.853 246 382.853 250.5 380.853C249.5 383.353 256 387.853 261 386.353C262.5 389.353 264.5 389.853 268.5 389.353Z" fill="#C45526"/>
<path d="M157 315.853C208.2 355.853 268 382.52 291.5 390.853L296 367.353C270.333 353.686 210.5 321.253 176.5 300.853C142.5 280.453 101.333 232.353 85 210.853L65.5 219.853C69.5 233.353 93 265.853 157 315.853Z" fill="url(#paint1_linear_18_5)"/>
<path d="M157.5 315.853C208.7 355.853 268.5 382.52 292 390.853L296.5 367.353C270.833 353.686 211 321.253 177 300.853C143 280.453 101.833 232.353 85.5 210.853L66 219.853C70 233.353 93.5 265.853 157.5 315.853Z" fill="url(#paint2_linear_18_5)"/>
<path d="M355.5 329.853L381 310.353C383.167 311.353 388.2 313.353 391 313.353C394.5 313.353 395.5 307.353 398.5 306.353C401.5 305.353 415 301.353 419.5 301.353C419 303.853 421.5 309.353 424 309.353C426 309.353 427.833 302.353 428 301.353C431.667 301.686 441.483 303.345 447.5 306.353C453.5 309.353 452.333 310.686 453.5 313.353L461.5 310.353L488.5 332.353H500L517 344.853H531.5C541.833 364.686 564.9 406.353 574.5 414.353C587.5 408.853 602.5 420.853 599 434.853C604.6 437.253 618.333 468.186 624.5 483.353C626.333 482.186 630.4 479.653 632 478.853C634 477.853 638 480.353 639 486.853C639 481.853 645 477.353 650.5 480.353C654.9 482.753 654.375 487.853 654 490.853C654.167 489.52 655.5 486.853 659.5 486.853C663.371 486.853 663.964 492.472 663.092 495.554C663.615 494.1 665.625 491.34 670.5 490.853C675.5 490.353 678 494.52 678.5 496.853C679.833 497.353 680.4 497.053 682 495.853C684 494.353 690.5 494.853 693 499.353C693.5 500.353 695.5 496.853 699 496.853C701.8 496.853 701.833 501.853 701.5 504.353C702.667 503.02 705.7 500.453 708.5 500.853C711.3 501.253 711.333 504.02 711 505.353C713.167 505.52 718.4 506.453 722 508.853C726.5 511.853 724.5 514.853 723 516.853C721.8 518.453 711.5 519.186 706.5 519.353C706.667 521.353 706.6 525.653 705 526.853C703.4 528.053 698 523.353 695.5 520.853C695.667 522.853 691.4 526.053 687 526.853C682.6 527.653 679 525.52 676 523.853C675.167 526.02 672.4 530.453 668 530.853C663.6 531.253 662.167 526.353 662 523.853C660.333 525.686 655.7 529.353 650.5 529.353C646 529.353 643 525.686 642.5 523.853H637C638 529.853 633 535.853 630.5 535.853C628 535.853 624 535.353 622.5 523.853C620.5 535.053 572.667 581.853 549 603.853C551 612.52 555 630.953 555 635.353C555 640.853 547.5 643.353 542 642.853C537.6 642.453 519.167 628.02 510.5 620.853L488.5 626.353C485.5 641.686 485 647.353 479 657.353C477.954 659.097 468.47 664.981 465.5 662.853C456 659.853 445 652.853 445 652.853H440.5C436.5 661.853 424 671.353 424 671.353C424 671.353 418.188 672.853 415 671.353C406.5 667.353 403 660.353 398.5 655.853L392.5 653.853C382 660.853 369.669 665.084 363.5 661.853C361.711 660.916 356.846 658.745 355.5 657.353C347.444 649.021 351.143 648.774 352 627.353L329.5 615.853C311.5 629.353 299.5 638.853 292.5 640.353C284.98 640.509 276.5 630.941 276.5 627.353C276.5 617.353 279 617.353 285 589.853C277.8 584.253 234 538.186 214.5 518.353C212.833 519.186 208 520.853 202 520.853C196 520.853 190.833 515.186 189 512.353C187 515.186 181.9 520.853 177.5 520.853C173.1 520.853 171.333 515.186 171 512.353L161.5 518.353C157.5 518.753 155.5 513.853 155 511.353C153.833 511.853 150.8 513.253 148 514.853C144.4 515.653 142.833 511.853 142.5 509.853L135 510.353L128 505.853H122C120.167 504.52 116.1 501.753 114.5 501.353C112.5 500.853 111.5 497.853 113.5 495.353C115.1 493.353 132.167 490.52 140.5 489.353L146 482.353L156 485.353L159 477.853L168 480.853L174.5 475.353L181.5 477.353L187.5 472.853H192.5L202 465.353H218.5L248 406.353L270 402.353L314 341.353H324L338 332.353L355.5 329.853Z" fill="#FF8450"/>
<path d="M460.337 317.089C450.918 304.711 437.314 321.215 447.779 343.909C458.244 366.602 477.08 341.846 460.337 317.089Z" fill="black"/>
<path d="M378.663 317.089C388.082 304.711 401.686 321.215 391.221 343.909C380.756 366.602 361.92 341.846 378.663 317.089Z" fill="black"/>
<ellipse cx="383.662" cy="322.999" rx="6.4384" ry="9.35052" transform="rotate(7.89458 383.662 322.999)" fill="white"/>
<ellipse cx="451.662" cy="322.999" rx="6.4384" ry="9.35052" transform="rotate(7.89458 451.662 322.999)" fill="white"/>
<path d="M390.5 375.853C378.1 377.053 344.667 355.02 329.5 343.853L326 347.853C343 360.853 369.5 384.853 390.5 386.353C401.5 378.853 407.992 375.853 423 375.853C440.5 375.853 443 377.353 455.5 383.853C471.1 383.453 503.833 356.853 518 346.353L515.5 341.853C502.833 350.353 474.3 371.953 455.5 374.353C445.5 366.353 431 364.353 423 364.853C415 365.353 404.5 364.853 390.5 375.853Z" fill="url(#paint3_linear_18_5)"/>
<ellipse cx="294" cy="469.353" rx="10" ry="10.5" fill="#D55151"/>
<circle cx="359.5" cy="457.353" r="8.5" fill="#D55151" fill-opacity="0.42"/>
<circle cx="342.5" cy="505.353" r="8.5" fill="#D55151" fill-opacity="0.42"/>
<circle cx="342.5" cy="408.353" r="8.5" fill="#D55151" fill-opacity="0.42"/>
<circle cx="248.5" cy="488.353" r="8.5" fill="#D55151" fill-opacity="0.42"/>
<circle cx="562.5" cy="529.353" r="8.5" fill="#D55151" fill-opacity="0.42"/>
<circle cx="579.5" cy="488.353" r="8.5" fill="#D55151" fill-opacity="0.42"/>
<circle cx="514.5" cy="558.353" r="8.5" fill="#D55151" fill-opacity="0.42"/>
<circle cx="554.5" cy="443.353" r="8.5" fill="#D55151" fill-opacity="0.42"/>
<circle cx="289" cy="523.853" r="13" fill="#D55151" fill-opacity="0.76"/>
<circle cx="266" cy="449.853" r="10" fill="#D55151" fill-opacity="0.42"/>
<circle cx="517.5" cy="442.353" r="11.5" fill="#D55151" fill-opacity="0.5"/>
<circle cx="316" cy="434.853" r="10" fill="#D55151" fill-opacity="0.42"/>
<circle cx="297" cy="400.853" r="10" fill="#D55151" fill-opacity="0.3"/>
<circle cx="506" cy="396.853" r="10" fill="#D55151" fill-opacity="0.3"/>
<circle cx="312" cy="568.853" r="10" fill="#D55151" fill-opacity="0.3"/>
<circle cx="535.5" cy="409.353" r="12.5" fill="#D55151" fill-opacity="0.76"/>
<circle cx="549" cy="470.853" r="9" fill="#D55151"/>
<circle cx="541.5" cy="502.353" r="8.5" fill="#D55151" fill-opacity="0.76"/>
</g>
<defs>
<linearGradient id="paint0_linear_18_5" x1="643.267" y1="240.353" x2="669.979" y2="414.476" gradientUnits="userSpaceOnUse">
<stop offset="0.284676" stop-color="#E75F5F" stop-opacity="0"/>
<stop offset="0.788046" stop-color="#D55151"/>
</linearGradient>
<linearGradient id="paint1_linear_18_5" x1="199.5" y1="230.353" x2="108.5" y2="366.353" gradientUnits="userSpaceOnUse">
<stop offset="0.284676" stop-color="#E75F5F" stop-opacity="0"/>
<stop offset="0.788046" stop-color="#D55151"/>
</linearGradient>
<linearGradient id="paint2_linear_18_5" x1="200" y1="230.353" x2="233" y2="439.853" gradientUnits="userSpaceOnUse">
<stop offset="0.284676" stop-color="#E75F5F" stop-opacity="0"/>
<stop offset="0.788046" stop-color="#D55151"/>
</linearGradient>
<linearGradient id="paint3_linear_18_5" x1="422" y1="341.853" x2="422" y2="386.353" gradientUnits="userSpaceOnUse">
<stop stop-color="#EC7643"/>
<stop offset="1" stop-color="#D55151"/>
</linearGradient>
<clipPath id="clip0_18_5">
<rect width="832" height="797" fill="white"/>
</clipPath>
</defs>
</svg>
